# xmcd
#
# Track frame offsets: 
#        150
#        13862
#        26967
#        41425
#        62002
#        74600
#        89597
#        107040
#        122220
#        136405
#        154972
#        171500
#        185100
#        198012
#        211920
#        224907
#        238465
#        257434
#
# Disc length: 3620 seconds
#
# Revision: 2
# Processed by: cddbd v1.5.2PL0 Copyright (c) Steve Scherf et al.
# Submitted via: ExactAudioCopy v0.99pb5
#
DISCID=210e2212
DTITLE=Linda Feller and Friends - Einmal Nashville und zurück
DYEAR=1998
DGENRE=Country
TTITLE0=Linda Feller - Head over heels - Minuten im Fieber
TTITLE1=Dickey Lee - Die Tür steht immer offen
TTITLE2=Linda Feller - Shadows of love
TTITLE3=Mike Herman and Linda Feller - Bakerstreet
TTITLE4=Linda Feller - Auch eine Frau kann durchaus ihren Mann stehn
TTITLE5=Jonny Hill - Lass mich sein wie ich bin
TTITLE6=Linda Feller and Vio - Silver and gold
TTITLE7=Rattlesnake Annie and Linda Feller - Even cowgirls get the blues
TTITLE8=Linda Feller - Keiner lügt so schlecht wie Du - Some you win a
TTITLE8=nd some you loose
TTITLE9=Linda Feller and Friends - Sweet home Alabama
TTITLE10=Tom Astor - Irgendwie wird's schon geh'n
TTITLE11=Linda Feller - Nashville forever
TTITLE12=Charlie McCoy - Orange blossom Special
TTITLE13=Jonny Hill - Suchst du Gold
TTITLE14=Linda Feller - Zwei Fäuste und ein Whisky
TTITLE15=Linda Feller - Cryin' song
TTITLE16=Iris McCollins and Linda Feller - Wie ein Stern in der Nacht
TTITLE17=Linda Feller - I will always love you
EXTD=
EXTT0=
EXTT1=
EXTT2=
EXTT3=
EXTT4=
EXTT5=
EXTT6=
EXTT7=
EXTT8=
EXTT9=
EXTT10=
EXTT11=
EXTT12=
EXTT13=
EXTT14=
EXTT15=
EXTT16=
EXTT17=
PLAYORDER=
